# Blender v2.83.4 OBJ File: ''
# www.blender.org
mtllib Firework.mtl
o Cylinder
v 0.000000 -0.128648 -0.030221
v 0.000000 0.128648 -0.030221
v 0.005896 -0.128648 -0.029641
v 0.005896 0.128648 -0.029641
v 0.011565 -0.128648 -0.027921
v 0.011565 0.128648 -0.027921
v 0.016790 -0.128648 -0.025128
v 0.016790 0.128648 -0.025128
v 0.021370 -0.128648 -0.021370
v 0.021370 0.128648 -0.021370
v 0.025128 -0.128648 -0.016790
v 0.025128 0.128648 -0.016790
v 0.027921 -0.128648 -0.011565
v 0.027921 0.128648 -0.011565
v 0.029640 -0.128648 -0.005896
v 0.029640 0.128648 -0.005896
v 0.030221 -0.128648 -0.000000
v 0.030221 0.128648 -0.000000
v 0.029640 -0.128648 0.005896
v 0.029640 0.128648 0.005896
v 0.027921 -0.128648 0.011565
v 0.027921 0.128648 0.011565
v 0.025128 -0.128648 0.016790
v 0.025128 0.128648 0.016790
v 0.021370 -0.128648 0.021370
v 0.021370 0.128648 0.021370
v 0.016790 -0.128648 0.025128
v 0.016790 0.128648 0.025128
v 0.011565 -0.128648 0.027921
v 0.011565 0.128648 0.027921
v 0.005896 -0.128648 0.029640
v 0.005896 0.128648 0.029640
v -0.000000 -0.128648 0.030221
v -0.000000 0.128648 0.030221
v -0.005896 -0.128648 0.029640
v -0.005896 0.128648 0.029640
v -0.011565 -0.128648 0.027921
v -0.011565 0.128648 0.027921
v -0.016790 -0.128648 0.025128
v -0.016790 0.128648 0.025128
v -0.021370 -0.128648 0.021370
v -0.021370 0.128648 0.021370
v -0.025128 -0.128648 0.016790
v -0.025128 0.128648 0.016790
v -0.027921 -0.128648 0.011565
v -0.027921 0.128648 0.011565
v -0.029640 -0.128648 0.005896
v -0.029640 0.128648 0.005896
v -0.030221 -0.128648 -0.000000
v -0.030221 0.128648 -0.000000
v -0.029640 -0.128648 -0.005896
v -0.029640 0.128648 -0.005896
v -0.027921 -0.128648 -0.011565
v -0.027921 0.128648 -0.011565
v -0.025128 -0.128648 -0.016790
v -0.025128 0.128648 -0.016790
v -0.021370 -0.128648 -0.021370
v -0.021370 0.128648 -0.021370
v -0.016790 -0.128648 -0.025128
v -0.016790 0.128648 -0.025128
v -0.011565 -0.128648 -0.027921
v -0.011565 0.128648 -0.027921
v -0.005896 -0.128648 -0.029641
v -0.005896 0.128648 -0.029641
v 0.000000 0.126757 -0.042122
v 0.008218 0.126757 -0.041312
v 0.016119 0.126757 -0.038916
v 0.023402 0.126757 -0.035023
v 0.029785 0.126757 -0.029785
v 0.035023 0.126757 -0.023402
v 0.038916 0.126757 -0.016119
v 0.041312 0.126757 -0.008218
v 0.042122 0.126757 -0.000000
v 0.041312 0.126757 0.008218
v 0.038916 0.126757 0.016119
v 0.035023 0.126757 0.023402
v 0.029785 0.126757 0.029785
v 0.023402 0.126757 0.035023
v 0.016119 0.126757 0.038915
v 0.008218 0.126757 0.041312
v -0.000000 0.126757 0.042122
v -0.008218 0.126757 0.041312
v -0.016119 0.126757 0.038915
v -0.023402 0.126757 0.035023
v -0.029785 0.126757 0.029785
v -0.035023 0.126757 0.023402
v -0.038916 0.126757 0.016119
v 0.000000 0.215177 -0.000000
v -0.041312 0.126757 0.008218
v -0.042122 0.126757 -0.000000
v -0.041312 0.126757 -0.008218
v -0.038915 0.126757 -0.016119
v -0.035023 0.126757 -0.023402
v -0.029785 0.126757 -0.029785
v -0.023402 0.126757 -0.035023
v -0.016119 0.126757 -0.038916
v -0.008217 0.126757 -0.041313
v 0.000000 -0.707417 -0.028275
v 0.000000 0.082951 -0.028275
v -0.000968 -0.707417 -0.028370
v -0.000968 0.082951 -0.028370
v -0.001899 -0.707417 -0.028653
v -0.001899 0.082951 -0.028653
v -0.002757 -0.707417 -0.029111
v -0.002757 0.082951 -0.029111
v -0.003508 -0.707417 -0.029728
v -0.003508 0.082951 -0.029728
v -0.004125 -0.707417 -0.030480
v -0.004125 0.082951 -0.030480
v -0.004584 -0.707417 -0.031338
v -0.004584 0.082951 -0.031338
v -0.004866 -0.707417 -0.032269
v -0.004866 0.082951 -0.032269
v -0.004962 -0.707417 -0.033236
v -0.004962 0.082951 -0.033236
v -0.004866 -0.707417 -0.034204
v -0.004866 0.082951 -0.034204
v -0.004584 -0.707417 -0.035135
v -0.004584 0.082951 -0.035135
v -0.004125 -0.707417 -0.035993
v -0.004125 0.082951 -0.035993
v -0.003508 -0.707417 -0.036745
v -0.003508 0.082951 -0.036745
v -0.002757 -0.707417 -0.037362
v -0.002757 0.082951 -0.037362
v -0.001899 -0.707417 -0.037820
v -0.001899 0.082951 -0.037820
v -0.000968 -0.707417 -0.038103
v -0.000968 0.082951 -0.038103
v 0.000000 -0.707417 -0.038198
v 0.000000 0.082951 -0.038198
v 0.000968 -0.707417 -0.038103
v 0.000968 0.082951 -0.038103
v 0.001899 -0.707417 -0.037820
v 0.001899 0.082951 -0.037820
v 0.002757 -0.707417 -0.037362
v 0.002757 0.082951 -0.037362
v 0.003508 -0.707417 -0.036745
v 0.003508 0.082951 -0.036745
v 0.004125 -0.707417 -0.035993
v 0.004125 0.082951 -0.035993
v 0.004584 -0.707417 -0.035135
v 0.004584 0.082951 -0.035135
v 0.004866 -0.707417 -0.034204
v 0.004866 0.082951 -0.034204
v 0.004962 -0.707417 -0.033236
v 0.004962 0.082951 -0.033236
v 0.004866 -0.707417 -0.032269
v 0.004866 0.082951 -0.032269
v 0.004584 -0.707417 -0.031338
v 0.004584 0.082951 -0.031338
v 0.004125 -0.707417 -0.030480
v 0.004125 0.082951 -0.030480
v 0.003508 -0.707417 -0.029728
v 0.003508 0.082951 -0.029728
v 0.002757 -0.707417 -0.029111
v 0.002757 0.082951 -0.029111
v 0.001899 -0.707417 -0.028653
v 0.001899 0.082951 -0.028653
v 0.000968 -0.707417 -0.028370
v 0.000968 0.082951 -0.028370
vt 0.531250 0.500000
vt 0.531250 1.000000
vt 0.500000 1.000000
vt 0.500000 0.500000
vt 0.468750 1.000000
vt 0.468750 0.500000
vt 0.437500 1.000000
vt 0.437500 0.500000
vt 0.406250 1.000000
vt 0.406250 0.500000
vt 0.375000 1.000000
vt 0.375000 0.500000
vt 0.343750 1.000000
vt 0.343750 0.500000
vt 0.312500 1.000000
vt 0.312500 0.500000
vt 0.281250 1.000000
vt 0.281250 0.500000
vt 0.250000 1.000000
vt 0.250000 0.500000
vt 0.218750 1.000000
vt 0.218750 0.500000
vt 0.187500 1.000000
vt 0.187500 0.500000
vt 0.156250 1.000000
vt 0.156250 0.500000
vt 0.125000 1.000000
vt 0.125000 0.500000
vt 0.093750 1.000000
vt 0.093750 0.500000
vt 0.062500 1.000000
vt 0.062500 0.500000
vt 0.296822 0.485388
vt 0.250000 0.490000
vt 0.203179 0.485389
vt 0.158156 0.471731
vt 0.116663 0.449553
vt 0.080295 0.419706
vt 0.050447 0.383337
vt 0.028269 0.341844
vt 0.014612 0.296822
vt 0.010000 0.250000
vt 0.014611 0.203179
vt 0.028269 0.158156
vt 0.050447 0.116663
vt 0.080294 0.080294
vt 0.116663 0.050447
vt 0.158156 0.028269
vt 0.203178 0.014612
vt 0.250000 0.010000
vt 0.296822 0.014612
vt 0.341844 0.028269
vt 0.383337 0.050447
vt 0.419706 0.080294
vt 0.449553 0.116663
vt 0.471731 0.158156
vt 0.485388 0.203178
vt 0.490000 0.250000
vt 0.485388 0.296822
vt 0.471731 0.341844
vt 0.449553 0.383337
vt 0.419706 0.419706
vt 0.383337 0.449553
vt 0.341844 0.471731
vt 0.031250 1.000000
vt 0.031250 0.500000
vt 0.000000 1.000000
vt 0.000000 0.500000
vt 0.158156 0.028269
vt 0.250000 0.250000
vt 0.116663 0.050447
vt 0.080294 0.080294
vt 0.050447 0.116663
vt 0.028269 0.158156
vt 0.014611 0.203179
vt 0.010000 0.250000
vt 0.014612 0.296822
vt 0.028269 0.341844
vt 0.050447 0.383337
vt 0.080295 0.419706
vt 0.116663 0.449553
vt 0.158156 0.471731
vt 1.000000 0.500000
vt 1.000000 1.000000
vt 0.968750 1.000000
vt 0.968750 0.500000
vt 0.937500 1.000000
vt 0.937500 0.500000
vt 0.906250 1.000000
vt 0.906250 0.500000
vt 0.875000 1.000000
vt 0.875000 0.500000
vt 0.843750 1.000000
vt 0.843750 0.500000
vt 0.812500 1.000000
vt 0.812500 0.500000
vt 0.781250 1.000000
vt 0.781250 0.500000
vt 0.750000 1.000000
vt 0.750000 0.500000
vt 0.718750 1.000000
vt 0.718750 0.500000
vt 0.687500 1.000000
vt 0.687500 0.500000
vt 0.656250 1.000000
vt 0.656250 0.500000
vt 0.625000 1.000000
vt 0.625000 0.500000
vt 0.593750 1.000000
vt 0.593750 0.500000
vt 0.562500 1.000000
vt 0.562500 0.500000
vt 0.531250 1.000000
vt 0.531250 0.500000
vt 0.500000 1.000000
vt 0.500000 0.500000
vt 0.468750 1.000000
vt 0.468750 0.500000
vt 0.437500 1.000000
vt 0.437500 0.500000
vt 0.406250 1.000000
vt 0.406250 0.500000
vt 0.375000 1.000000
vt 0.375000 0.500000
vt 0.343750 1.000000
vt 0.343750 0.500000
vt 0.312500 1.000000
vt 0.312500 0.500000
vt 0.281250 1.000000
vt 0.281250 0.500000
vt 0.250000 1.000000
vt 0.250000 0.500000
vt 0.218750 1.000000
vt 0.218750 0.500000
vt 0.187500 1.000000
vt 0.187500 0.500000
vt 0.156250 1.000000
vt 0.156250 0.500000
vt 0.125000 1.000000
vt 0.125000 0.500000
vt 0.093750 1.000000
vt 0.093750 0.500000
vt 0.062500 1.000000
vt 0.062500 0.500000
vt 0.296822 0.485388
vt 0.250000 0.490000
vt 0.203179 0.485389
vt 0.158156 0.471731
vt 0.116663 0.449553
vt 0.080295 0.419706
vt 0.050447 0.383337
vt 0.028269 0.341844
vt 0.014612 0.296822
vt 0.010000 0.250000
vt 0.014611 0.203179
vt 0.028269 0.158156
vt 0.050447 0.116663
vt 0.080294 0.080294
vt 0.116663 0.050447
vt 0.158156 0.028269
vt 0.203178 0.014612
vt 0.250000 0.010000
vt 0.296822 0.014612
vt 0.341844 0.028269
vt 0.383337 0.050447
vt 0.419706 0.080294
vt 0.449553 0.116663
vt 0.471731 0.158156
vt 0.485388 0.203178
vt 0.490000 0.250000
vt 0.485388 0.296822
vt 0.471731 0.341844
vt 0.449553 0.383337
vt 0.419706 0.419706
vt 0.383337 0.449553
vt 0.341844 0.471731
vt 0.031250 1.000000
vt 0.031250 0.500000
vt 0.000000 1.000000
vt 0.000000 0.500000
vt 0.750000 0.490000
vt 0.796822 0.485388
vt 0.841844 0.471731
vt 0.883337 0.449553
vt 0.919706 0.419706
vt 0.949553 0.383337
vt 0.971731 0.341844
vt 0.985388 0.296822
vt 0.990000 0.250000
vt 0.985388 0.203178
vt 0.971731 0.158156
vt 0.949553 0.116663
vt 0.919706 0.080294
vt 0.883337 0.050447
vt 0.841844 0.028269
vt 0.796822 0.014612
vt 0.750000 0.010000
vt 0.703178 0.014612
vt 0.658156 0.028269
vt 0.616663 0.050447
vt 0.580294 0.080294
vt 0.550447 0.116663
vt 0.528269 0.158156
vt 0.514611 0.203179
vt 0.510000 0.250000
vt 0.514612 0.296822
vt 0.528269 0.341844
vt 0.550447 0.383337
vt 0.580295 0.419706
vt 0.616663 0.449553
vt 0.658156 0.471731
vt 0.703179 0.485389
vt 1.000000 0.500000
vt 1.000000 1.000000
vt 0.968750 1.000000
vt 0.968750 0.500000
vt 0.937500 1.000000
vt 0.937500 0.500000
vt 0.906250 1.000000
vt 0.906250 0.500000
vt 0.875000 1.000000
vt 0.875000 0.500000
vt 0.843750 1.000000
vt 0.843750 0.500000
vt 0.812500 1.000000
vt 0.812500 0.500000
vt 0.781250 1.000000
vt 0.781250 0.500000
vt 0.750000 1.000000
vt 0.750000 0.500000
vt 0.718750 1.000000
vt 0.718750 0.500000
vt 0.687500 1.000000
vt 0.687500 0.500000
vt 0.656250 1.000000
vt 0.656250 0.500000
vt 0.625000 1.000000
vt 0.625000 0.500000
vt 0.593750 1.000000
vt 0.593750 0.500000
vt 0.562500 1.000000
vt 0.562500 0.500000
vt 0.750000 0.490000
vt 0.796822 0.485388
vt 0.841844 0.471731
vt 0.883337 0.449553
vt 0.919706 0.419706
vt 0.949553 0.383337
vt 0.971731 0.341844
vt 0.985388 0.296822
vt 0.990000 0.250000
vt 0.985388 0.203178
vt 0.971731 0.158156
vt 0.949553 0.116663
vt 0.919706 0.080294
vt 0.883337 0.050447
vt 0.841844 0.028269
vt 0.796822 0.014612
vt 0.750000 0.010000
vt 0.703178 0.014612
vt 0.658156 0.028269
vt 0.616663 0.050447
vt 0.580294 0.080294
vt 0.550447 0.116663
vt 0.528269 0.158156
vt 0.514611 0.203179
vt 0.510000 0.250000
vt 0.514612 0.296822
vt 0.528269 0.341844
vt 0.550447 0.383337
vt 0.580295 0.419706
vt 0.616663 0.449553
vt 0.658156 0.471731
vt 0.703179 0.485389
vt 0.250000 0.490000
vt 0.296822 0.485388
vt 0.341844 0.471731
vt 0.383337 0.449553
vt 0.419706 0.419706
vt 0.449553 0.383337
vt 0.471731 0.341844
vt 0.485388 0.296822
vt 0.490000 0.250000
vt 0.485388 0.203178
vt 0.471731 0.158156
vt 0.449553 0.116663
vt 0.419706 0.080294
vt 0.383337 0.050447
vt 0.341844 0.028269
vt 0.296822 0.014612
vt 0.250000 0.010000
vt 0.203178 0.014612
vt 0.203179 0.485389
vt 0.750000 0.490000
vt 0.796822 0.485388
vt 0.841844 0.471731
vt 0.883337 0.449553
vt 0.919706 0.419706
vt 0.949553 0.383337
vt 0.971731 0.341844
vt 0.985388 0.296822
vt 0.990000 0.250000
vt 0.985388 0.203178
vt 0.971731 0.158156
vt 0.949553 0.116663
vt 0.919706 0.080294
vt 0.883337 0.050447
vt 0.841844 0.028269
vt 0.796822 0.014612
vt 0.750000 0.010000
vt 0.703178 0.014612
vt 0.658156 0.028269
vt 0.616663 0.050447
vt 0.580294 0.080294
vt 0.550447 0.116663
vt 0.528269 0.158156
vt 0.514611 0.203179
vt 0.510000 0.250000
vt 0.514612 0.296822
vt 0.528269 0.341844
vt 0.550447 0.383337
vt 0.580295 0.419706
vt 0.616663 0.449553
vt 0.658156 0.471731
vt 0.703179 0.485389
vn 0.0980 0.0000 0.9952
vn -0.0980 0.0000 0.9952
vn -0.2903 0.0000 0.9569
vn -0.4714 0.0000 0.8819
vn -0.6344 0.0000 0.7730
vn -0.7730 0.0000 0.6344
vn -0.8819 0.0000 0.4714
vn -0.9569 0.0000 0.2903
vn -0.9952 0.0000 0.0980
vn -0.9952 0.0000 -0.0980
vn -0.9569 0.0000 -0.2903
vn -0.8819 0.0000 -0.4714
vn -0.7730 0.0000 -0.6344
vn -0.6344 0.0000 -0.7730
vn -0.4714 0.0000 -0.8819
vn 0.0000 1.0000 0.0000
vn -0.2903 0.0000 -0.9569
vn -0.0980 0.0000 -0.9952
vn -0.4260 0.4284 0.7969
vn -0.5732 0.4284 0.6985
vn -0.6985 0.4284 0.5732
vn -0.7969 0.4284 0.4260
vn -0.8647 0.4284 0.2623
vn -0.8992 0.4284 0.0886
vn -0.8992 0.4284 -0.0886
vn -0.8647 0.4284 -0.2623
vn -0.7969 0.4284 -0.4260
vn -0.6985 0.4284 -0.5732
vn -0.5732 0.4284 -0.6985
vn -0.4260 0.4284 -0.7969
vn 0.0980 0.0000 -0.9952
vn 0.2903 0.0000 -0.9569
vn 0.4714 0.0000 -0.8819
vn 0.6344 0.0000 -0.7730
vn 0.7730 0.0000 -0.6344
vn 0.8819 0.0000 -0.4714
vn 0.9569 0.0000 -0.2903
vn 0.9952 0.0000 -0.0980
vn 0.9952 0.0000 0.0980
vn 0.9569 0.0000 0.2903
vn 0.8819 0.0000 0.4714
vn 0.7730 0.0000 0.6344
vn 0.6344 0.0000 0.7730
vn 0.4714 0.0000 0.8819
vn 0.2903 0.0000 0.9569
vn 0.0000 -1.0000 -0.0000
vn 0.0886 0.4284 -0.8992
vn 0.2623 0.4284 -0.8647
vn 0.4260 0.4284 -0.7969
vn 0.5732 0.4284 -0.6985
vn 0.6985 0.4284 -0.5732
vn 0.7969 0.4284 -0.4260
vn 0.8647 0.4284 -0.2623
vn 0.8992 0.4284 -0.0886
vn 0.8992 0.4284 0.0886
vn 0.8647 0.4284 0.2623
vn 0.7969 0.4284 0.4260
vn 0.6985 0.4284 0.5732
vn 0.5732 0.4284 0.6985
vn 0.4260 0.4284 0.7969
vn 0.2623 0.4284 0.8647
vn 0.0886 0.4284 0.8992
vn -0.0886 0.4284 0.8992
vn -0.2623 0.4284 0.8647
vn -0.2623 0.4284 -0.8647
vn -0.0886 0.4284 -0.8992
usemtl Rod
s off
f 31/1/1 32/2/1 34/3/1 33/4/1
f 33/4/2 34/3/2 36/5/2 35/6/2
f 35/6/3 36/5/3 38/7/3 37/8/3
f 37/8/4 38/7/4 40/9/4 39/10/4
f 39/10/5 40/9/5 42/11/5 41/12/5
f 41/12/6 42/11/6 44/13/6 43/14/6
f 43/14/7 44/13/7 46/15/7 45/16/7
f 45/16/8 46/15/8 48/17/8 47/18/8
f 47/18/9 48/17/9 50/19/9 49/20/9
f 49/20/10 50/19/10 52/21/10 51/22/10
f 51/22/11 52/21/11 54/23/11 53/24/11
f 53/24/12 54/23/12 56/25/12 55/26/12
f 55/26/13 56/25/13 58/27/13 57/28/13
f 57/28/14 58/27/14 60/29/14 59/30/14
f 59/30/15 60/29/15 62/31/15 61/32/15
f 4/33/16 2/34/16 64/35/16 62/36/16 60/37/16 58/38/16 56/39/16 54/40/16 52/41/16 50/42/16 48/43/16 46/44/16 44/45/16 42/46/16 40/47/16 38/48/16 36/49/16 34/50/16 32/51/16 30/52/16 28/53/16 26/54/16 24/55/16 22/56/16 20/57/16 18/58/16 16/59/16 14/60/16 12/61/16 10/62/16 8/63/16 6/64/16
f 61/32/17 62/31/17 64/65/17 63/66/17
f 63/66/18 64/65/18 2/67/18 1/68/18
f 83/69/19 88/70/19 84/71/19
f 84/71/20 88/70/20 85/72/20
f 85/72/21 88/70/21 86/73/21
f 86/73/22 88/70/22 87/74/22
f 87/74/23 88/70/23 89/75/23
f 89/75/24 88/70/24 90/76/24
f 90/76/25 88/70/25 91/77/25
f 91/77/26 88/70/26 92/78/26
f 92/78/27 88/70/27 93/79/27
f 93/79/28 88/70/28 94/80/28
f 94/80/29 88/70/29 95/81/29
f 95/81/30 88/70/30 96/82/30
f 98/83/2 99/84/2 101/85/2 100/86/2
f 100/86/3 101/85/3 103/87/3 102/88/3
f 102/88/4 103/87/4 105/89/4 104/90/4
f 104/90/5 105/89/5 107/91/5 106/92/5
f 106/92/6 107/91/6 109/93/6 108/94/6
f 108/94/7 109/93/7 111/95/7 110/96/7
f 110/96/8 111/95/8 113/97/8 112/98/8
f 112/98/9 113/97/9 115/99/9 114/100/9
f 114/100/10 115/99/10 117/101/10 116/102/10
f 116/102/11 117/101/11 119/103/11 118/104/11
f 118/104/12 119/103/12 121/105/12 120/106/12
f 120/106/13 121/105/13 123/107/13 122/108/13
f 122/108/14 123/107/14 125/109/14 124/110/14
f 124/110/15 125/109/15 127/111/15 126/112/15
f 126/112/17 127/111/17 129/113/17 128/114/17
f 128/114/18 129/113/18 131/115/18 130/116/18
f 130/116/31 131/115/31 133/117/31 132/118/31
f 132/118/32 133/117/32 135/119/32 134/120/32
f 134/120/33 135/119/33 137/121/33 136/122/33
f 136/122/34 137/121/34 139/123/34 138/124/34
f 138/124/35 139/123/35 141/125/35 140/126/35
f 140/126/36 141/125/36 143/127/36 142/128/36
f 142/128/37 143/127/37 145/129/37 144/130/37
f 144/130/38 145/129/38 147/131/38 146/132/38
f 146/132/39 147/131/39 149/133/39 148/134/39
f 148/134/40 149/133/40 151/135/40 150/136/40
f 150/136/41 151/135/41 153/137/41 152/138/41
f 152/138/42 153/137/42 155/139/42 154/140/42
f 154/140/43 155/139/43 157/141/43 156/142/43
f 156/142/44 157/141/44 159/143/44 158/144/44
f 101/145/16 99/146/16 161/147/16 159/148/16 157/149/16 155/150/16 153/151/16 151/152/16 149/153/16 147/154/16 145/155/16 143/156/16 141/157/16 139/158/16 137/159/16 135/160/16 133/161/16 131/162/16 129/163/16 127/164/16 125/165/16 123/166/16 121/167/16 119/168/16 117/169/16 115/170/16 113/171/16 111/172/16 109/173/16 107/174/16 105/175/16 103/176/16
f 158/144/45 159/143/45 161/177/45 160/178/45
f 160/178/1 161/177/1 99/179/1 98/180/1
f 98/181/46 100/182/46 102/183/46 104/184/46 106/185/46 108/186/46 110/187/46 112/188/46 114/189/46 116/190/46 118/191/46 120/192/46 122/193/46 124/194/46 126/195/46 128/196/46 130/197/46 132/198/46 134/199/46 136/200/46 138/201/46 140/202/46 142/203/46 144/204/46 146/205/46 148/206/46 150/207/46 152/208/46 154/209/46 156/210/46 158/211/46 160/212/46
usemtl Rocket
f 1/213/31 2/214/31 4/215/31 3/216/31
f 3/216/32 4/215/32 6/217/32 5/218/32
f 5/218/33 6/217/33 8/219/33 7/220/33
f 7/220/34 8/219/34 10/221/34 9/222/34
f 9/222/35 10/221/35 12/223/35 11/224/35
f 11/224/36 12/223/36 14/225/36 13/226/36
f 13/226/37 14/225/37 16/227/37 15/228/37
f 15/228/38 16/227/38 18/229/38 17/230/38
f 17/230/39 18/229/39 20/231/39 19/232/39
f 19/232/40 20/231/40 22/233/40 21/234/40
f 21/234/41 22/233/41 24/235/41 23/236/41
f 23/236/42 24/235/42 26/237/42 25/238/42
f 25/238/43 26/237/43 28/239/43 27/240/43
f 27/240/44 28/239/44 30/241/44 29/242/44
f 29/242/45 30/241/45 32/2/45 31/1/45
f 1/243/46 3/244/46 5/245/46 7/246/46 9/247/46 11/248/46 13/249/46 15/250/46 17/251/46 19/252/46 21/253/46 23/254/46 25/255/46 27/256/46 29/257/46 31/258/46 33/259/46 35/260/46 37/261/46 39/262/46 41/263/46 43/264/46 45/265/46 47/266/46 49/267/46 51/268/46 53/269/46 55/270/46 57/271/46 59/272/46 61/273/46 63/274/46
usemtl Cone
f 65/275/47 88/70/47 66/276/47
f 66/276/48 88/70/48 67/277/48
f 67/277/49 88/70/49 68/278/49
f 68/278/50 88/70/50 69/279/50
f 69/279/51 88/70/51 70/280/51
f 70/280/52 88/70/52 71/281/52
f 71/281/53 88/70/53 72/282/53
f 72/282/54 88/70/54 73/283/54
f 73/283/55 88/70/55 74/284/55
f 74/284/56 88/70/56 75/285/56
f 75/285/57 88/70/57 76/286/57
f 76/286/58 88/70/58 77/287/58
f 77/287/59 88/70/59 78/288/59
f 78/288/60 88/70/60 79/289/60
f 79/289/61 88/70/61 80/290/61
f 80/290/62 88/70/62 81/291/62
f 81/291/63 88/70/63 82/292/63
f 82/292/64 88/70/64 83/69/64
f 96/82/65 88/70/65 97/293/65
f 97/293/66 88/70/66 65/275/66
f 65/294/46 66/295/46 67/296/46 68/297/46 69/298/46 70/299/46 71/300/46 72/301/46 73/302/46 74/303/46 75/304/46 76/305/46 77/306/46 78/307/46 79/308/46 80/309/46 81/310/46 82/311/46 83/312/46 84/313/46 85/314/46 86/315/46 87/316/46 89/317/46 90/318/46 91/319/46 92/320/46 93/321/46 94/322/46 95/323/46 96/324/46 97/325/46
